<svg width="64" height="64" viewBox="0 0 64 64" fill="none" xmlns="http://www.w3.org/2000/svg">
<path d="M31.9997 58.6667C46.7273 58.6667 58.6663 46.7276 58.6663 32C58.6663 17.2724 46.7273 5.33334 31.9997 5.33334C17.2721 5.33334 5.33301 17.2724 5.33301 32C5.33301 46.7276 17.2721 58.6667 31.9997 58.6667Z" stroke="#F1723D" stroke-width="1.5"/>
<path d="M20 45.3333C26.2179 38.8208 37.7152 38.5141 44 45.3333M38.6536 25.3333C38.6536 29.0152 35.6645 32 31.9773 32C28.2904 32 25.3013 29.0152 25.3013 25.3333C25.3013 21.6514 28.2904 18.6667 31.9773 18.6667C35.6645 18.6667 38.6536 21.6514 38.6536 25.3333Z" stroke="#F1723D" stroke-width="1.5" stroke-linecap="round"/>
</svg>
